<svg width="1371" height="1165" viewBox="0 0 1371 1165" fill="none" xmlns="http://www.w3.org/2000/svg">
<g opacity="0.84">
<mask id="mask0_1_32120" style="mask-type:alpha" maskUnits="userSpaceOnUse" x="-4" y="-151" width="1379" height="1329">
<g style="mix-blend-mode:plus-lighter" opacity="0.03">
<path d="M114.916 115.387L221.2 54.0238C226.542 50.9398 229.833 45.2401 229.833 39.0719V-73.6861C229.833 -79.8543 226.542 -85.5539 221.2 -88.638L123.549 -145.017C118.207 -148.101 111.626 -148.101 106.284 -145.017L8.6325 -88.638C3.29069 -85.5539 0 -79.8543 0 -73.6861V39.0719C0 45.2401 3.2907 50.9398 8.63251 54.0239L114.916 115.387ZM114.916 115.387L221.2 176.75C226.542 179.834 229.833 185.534 229.833 191.702V304.46C229.833 310.628 226.542 316.328 221.2 319.412L114.916 380.775M114.916 115.387L8.6325 176.75C3.29069 179.834 0 185.534 0 191.702V304.46C0 310.628 3.2907 316.328 8.63251 319.412L114.916 380.775M114.916 380.775L221.2 442.138C226.542 445.222 229.833 450.921 229.833 457.09V569.848C229.833 576.016 226.542 581.715 221.2 584.799L114.916 646.162M114.916 380.775L8.6325 442.138C3.29069 445.222 0 450.921 0 457.09V569.848C0 576.016 3.2907 581.715 8.63251 584.799L114.916 646.162M114.916 646.162L221.2 707.525C226.542 710.609 229.833 716.309 229.833 722.477V835.235C229.833 841.403 226.542 847.103 221.2 850.187L114.916 911.55M114.916 646.162L8.6325 707.525C3.29069 710.609 0 716.309 0 722.477V835.235C0 841.403 3.2907 847.103 8.63251 850.187L114.916 911.55M114.916 911.55L221.2 972.913C226.542 975.997 229.833 981.697 229.833 987.865V1100.62C229.833 1106.79 226.542 1112.49 221.2 1115.58L123.549 1171.95C118.207 1175.04 111.626 1175.04 106.284 1171.95L8.63251 1115.58C3.2907 1112.49 0 1106.79 0 1100.62V987.865C0 981.697 3.29069 975.997 8.6325 972.913L114.916 911.55ZM343.15 115.387L449.434 54.0238C454.775 50.9398 458.066 45.2401 458.066 39.0719V-73.6861C458.066 -79.8543 454.775 -85.5539 449.434 -88.638L351.782 -145.017C346.44 -148.101 339.859 -148.101 334.517 -145.017L236.866 -88.638C231.524 -85.5539 228.233 -79.8543 228.233 -73.6861V39.0719C228.233 45.2401 231.524 50.9398 236.866 54.0239L343.15 115.387ZM343.15 115.387L449.434 176.75C454.775 179.834 458.066 185.534 458.066 191.702V304.46C458.066 310.628 454.775 316.328 449.434 319.412L343.15 380.775M343.15 115.387L236.866 176.75C231.524 179.834 228.233 185.534 228.233 191.702V304.46C228.233 310.628 231.524 316.328 236.866 319.412L343.15 380.775M343.15 380.775L449.434 442.138C454.775 445.222 458.066 450.921 458.066 457.09V569.848C458.066 576.016 454.775 581.715 449.434 584.799L343.15 646.162M343.15 380.775L236.866 442.138C231.524 445.222 228.233 450.921 228.233 457.09V569.848C228.233 576.016 231.524 581.715 236.866 584.799L343.15 646.162M343.15 646.162L449.434 707.525C454.775 710.609 458.066 716.309 458.066 722.477V835.235C458.066 841.403 454.775 847.103 449.434 850.187L343.15 911.55M343.15 646.162L236.866 707.525C231.524 710.609 228.233 716.309 228.233 722.477V835.235C228.233 841.403 231.524 847.103 236.866 850.187L343.15 911.55M343.15 911.55L449.434 972.913C454.775 975.997 458.066 981.697 458.066 987.865V1100.62C458.066 1106.79 454.775 1112.49 449.434 1115.58L351.782 1171.95C346.44 1175.04 339.859 1175.04 334.517 1171.95L236.866 1115.58C231.524 1112.49 228.233 1106.79 228.233 1100.62V987.865C228.233 981.697 231.524 975.997 236.866 972.913L343.15 911.55ZM571.383 115.387L677.667 54.0238C683.009 50.9398 686.3 45.2401 686.3 39.0719V-73.6861C686.3 -79.8543 683.009 -85.5539 677.667 -88.638L580.016 -145.017C574.674 -148.101 568.093 -148.101 562.751 -145.017L465.099 -88.638C459.758 -85.5539 456.467 -79.8543 456.467 -73.6861V39.0719C456.467 45.2401 459.758 50.9398 465.099 54.0239L571.383 115.387ZM571.383 115.387L677.667 176.75C683.009 179.834 686.3 185.534 686.3 191.702V304.46C686.3 310.628 683.009 316.328 677.667 319.412L571.383 380.775M571.383 115.387L465.099 176.75C459.758 179.834 456.467 185.534 456.467 191.702V304.46C456.467 310.628 459.758 316.328 465.099 319.412L571.383 380.775M571.383 380.775L677.667 442.138C683.009 445.222 686.3 450.921 686.3 457.09V569.848C686.3 576.016 683.009 581.715 677.667 584.799L571.383 646.162M571.383 380.775L465.099 442.138C459.758 445.222 456.467 450.921 456.467 457.09V569.848C456.467 576.016 459.758 581.715 465.099 584.799L571.383 646.162M571.383 646.162L677.667 707.525C683.009 710.609 686.3 716.309 686.3 722.477V835.235C686.3 841.403 683.009 847.103 677.667 850.187L571.383 911.55M571.383 646.162L465.099 707.525C459.758 710.609 456.467 716.309 456.467 722.477V835.235C456.467 841.403 459.758 847.103 465.099 850.187L571.383 911.55M571.383 911.55L677.667 972.913C683.009 975.997 686.3 981.697 686.3 987.865V1100.62C686.3 1106.79 683.009 1112.49 677.667 1115.58L580.016 1171.95C574.674 1175.04 568.093 1175.04 562.751 1171.95L465.099 1115.58C459.758 1112.49 456.467 1106.79 456.467 1100.62V987.865C456.467 981.697 459.758 975.997 465.099 972.913L571.383 911.55ZM799.617 115.387L905.901 54.0238C911.242 50.9398 914.533 45.2401 914.533 39.0719V-73.6861C914.533 -79.8543 911.242 -85.5539 905.9 -88.638L808.249 -145.017C802.907 -148.101 796.326 -148.101 790.984 -145.017L693.333 -88.638C687.991 -85.5539 684.7 -79.8543 684.7 -73.6861V39.0719C684.7 45.2401 687.991 50.9398 693.333 54.0239L799.617 115.387ZM799.617 115.387L905.9 176.75C911.242 179.834 914.533 185.534 914.533 191.702V304.46C914.533 310.628 911.242 316.328 905.901 319.412L799.617 380.775M799.617 115.387L693.333 176.75C687.991 179.834 684.7 185.534 684.7 191.702V304.46C684.7 310.628 687.991 316.328 693.333 319.412L799.617 380.775M799.617 380.775L905.9 442.138C911.242 445.222 914.533 450.921 914.533 457.09V569.848C914.533 576.016 911.242 581.715 905.901 584.799L799.617 646.162M799.617 380.775L693.333 442.138C687.991 445.222 684.7 450.921 684.7 457.09V569.848C684.7 576.016 687.991 581.715 693.333 584.799L799.617 646.162M799.617 646.162L905.9 707.525C911.242 710.609 914.533 716.309 914.533 722.477V835.235C914.533 841.403 911.242 847.103 905.901 850.187L799.617 911.55M799.617 646.162L693.333 707.525C687.991 710.609 684.7 716.309 684.7 722.477V835.235C684.7 841.403 687.991 847.103 693.333 850.187L799.617 911.55M799.617 911.55L905.9 972.913C911.242 975.997 914.533 981.697 914.533 987.865V1100.62C914.533 1106.79 911.242 1112.49 905.901 1115.58L808.249 1171.95C802.907 1175.04 796.326 1175.04 790.984 1171.95L693.333 1115.58C687.991 1112.49 684.7 1106.79 684.7 1100.62V987.865C684.7 981.697 687.991 975.997 693.333 972.913L799.617 911.55ZM1027.85 115.387L1134.13 54.0238C1139.48 50.9398 1142.77 45.2401 1142.77 39.0719V-73.6861C1142.77 -79.8543 1139.48 -85.5539 1134.13 -88.638L1036.48 -145.017C1031.14 -148.101 1024.56 -148.101 1019.22 -145.017L921.566 -88.638C916.225 -85.5539 912.934 -79.8543 912.934 -73.6861V39.0719C912.934 45.2401 916.225 50.9398 921.566 54.0239L1027.85 115.387ZM1027.85 115.387L1134.13 176.75C1139.48 179.834 1142.77 185.534 1142.77 191.702V304.46C1142.77 310.628 1139.48 316.328 1134.13 319.412L1027.85 380.775M1027.85 115.387L921.566 176.75C916.225 179.834 912.934 185.534 912.934 191.702V304.46C912.934 310.628 916.225 316.328 921.566 319.412L1027.85 380.775M1027.85 380.775L1134.13 442.138C1139.48 445.222 1142.77 450.921 1142.77 457.09V569.848C1142.77 576.016 1139.48 581.715 1134.13 584.799L1027.85 646.162M1027.85 380.775L921.566 442.138C916.225 445.222 912.934 450.921 912.934 457.09V569.848C912.934 576.016 916.225 581.715 921.566 584.799L1027.85 646.162M1027.85 646.162L1134.13 707.525C1139.48 710.609 1142.77 716.309 1142.77 722.477V835.235C1142.77 841.403 1139.48 847.103 1134.13 850.187L1027.85 911.55M1027.85 646.162L921.566 707.525C916.225 710.609 912.934 716.309 912.934 722.477V835.235C912.934 841.403 916.225 847.103 921.566 850.187L1027.85 911.55M1027.85 911.55L1134.13 972.913C1139.48 975.997 1142.77 981.697 1142.77 987.865V1100.62C1142.77 1106.79 1139.48 1112.49 1134.13 1115.58L1036.48 1171.95C1031.14 1175.04 1024.56 1175.04 1019.22 1171.95L921.566 1115.58C916.225 1112.49 912.934 1106.79 912.934 1100.62V987.865C912.934 981.697 916.225 975.997 921.566 972.913L1027.85 911.55ZM1256.08 115.387L1362.37 54.0238C1367.71 50.9398 1371 45.2401 1371 39.0719V-73.6861C1371 -79.8543 1367.71 -85.5539 1362.37 -88.638L1264.72 -145.017C1259.37 -148.101 1252.79 -148.101 1247.45 -145.017L1149.8 -88.638C1144.46 -85.5539 1141.17 -79.8543 1141.17 -73.6861V39.0719C1141.17 45.2401 1144.46 50.9398 1149.8 54.0239L1256.08 115.387ZM1256.08 115.387L1362.37 176.75C1367.71 179.834 1371 185.534 1371 191.702V304.46C1371 310.628 1367.71 316.328 1362.37 319.412L1256.08 380.775M1256.08 115.387L1149.8 176.75C1144.46 179.834 1141.17 185.534 1141.17 191.702V304.46C1141.17 310.628 1144.46 316.328 1149.8 319.412L1256.08 380.775M1256.08 380.775L1362.37 442.138C1367.71 445.222 1371 450.921 1371 457.09V569.848C1371 576.016 1367.71 581.715 1362.37 584.799L1256.08 646.162M1256.08 380.775L1149.8 442.138C1144.46 445.222 1141.17 450.921 1141.17 457.09V569.848C1141.17 576.016 1144.46 581.715 1149.8 584.799L1256.08 646.162M1256.08 646.162L1362.37 707.525C1367.71 710.609 1371 716.309 1371 722.477V835.235C1371 841.403 1367.71 847.103 1362.37 850.187L1256.08 911.55M1256.08 646.162L1149.8 707.525C1144.46 710.609 1141.17 716.309 1141.17 722.477V835.235C1141.17 841.403 1144.46 847.103 1149.8 850.187L1256.08 911.55M1256.08 911.55L1362.37 972.913C1367.71 975.997 1371 981.697 1371 987.865V1100.62C1371 1106.79 1367.71 1112.49 1362.37 1115.58L1264.72 1171.95C1259.37 1175.04 1252.79 1175.04 1247.45 1171.95L1149.8 1115.58C1144.46 1112.49 1141.17 1106.79 1141.17 1100.62V987.865C1141.17 981.697 1144.46 975.997 1149.8 972.913L1256.08 911.55Z" stroke="url(#paint0_linear_1_32120)" stroke-width="6.28035"/>
</g>
</mask>
<g mask="url(#mask0_1_32120)">
<rect y="-150.629" width="1371" height="1327.04" fill="url(#paint1_linear_1_32120)"/>
</g>
</g>
<defs>
<linearGradient id="paint0_linear_1_32120" x1="1301.36" y1="-333.673" x2="312.88" y2="1114.9" gradientUnits="userSpaceOnUse">
<stop offset="0.0548105" stop-color="#FF9809"/>
<stop offset="1" stop-color="#FFE37D"/>
</linearGradient>
<linearGradient id="paint1_linear_1_32120" x1="685.5" y1="-150.629" x2="685.186" y2="993.022" gradientUnits="userSpaceOnUse">
<stop stop-color="#F4B917"/>
<stop offset="1" stop-color="#F4B917" stop-opacity="0"/>
</linearGradient>
</defs>
</svg>
