<svg width="62" height="62" viewBox="0 0 62 62" fill="none" xmlns="http://www.w3.org/2000/svg">
<path d="M34.9513 21.5755C33.4725 22.6297 31.6629 23.2498 29.7084 23.2498C24.7148 23.2498 20.6667 19.2017 20.6667 14.2082C20.6667 9.2146 24.7148 5.1665 29.7084 5.1665C32.9453 5.1665 35.7849 6.86742 37.3822 9.4242M15.5001 51.8917H22.2433C23.1225 51.8917 23.9964 51.9963 24.8487 52.2055L31.9737 53.9369C33.5197 54.3136 35.1303 54.3502 36.6924 54.0468L44.5703 52.5141C46.6513 52.1087 48.5657 51.1122 50.066 49.6528L55.6396 44.2309C57.2313 42.6852 57.2313 40.177 55.6396 38.6286C54.2066 37.2345 51.9373 37.0776 50.316 38.2598L43.8201 42.999C42.8898 43.6791 41.7579 44.0452 40.5937 44.0452H34.321L38.3137 44.0451C40.5641 44.0451 42.387 42.2718 42.387 40.0826V39.2901C42.387 37.4724 41.1153 35.8874 39.3031 35.448L33.1406 33.9493C32.1377 33.7061 31.1107 33.5832 30.0782 33.5832C27.5858 33.5832 23.0741 35.6468 23.0741 35.6468L15.5001 38.8141M51.6668 16.7915C51.6668 21.7851 47.6187 25.8332 42.6251 25.8332C37.6315 25.8332 33.5834 21.7851 33.5834 16.7915C33.5834 11.7979 37.6315 7.74984 42.6251 7.74984C47.6187 7.74984 51.6668 11.7979 51.6668 16.7915ZM5.16675 37.7165L5.16675 52.6998C5.16675 54.1466 5.16675 54.87 5.44831 55.4226C5.69599 55.9087 6.09119 56.3039 6.57727 56.5516C7.12988 56.8332 7.85328 56.8332 9.30008 56.8332H11.3667C12.8135 56.8332 13.537 56.8332 14.0896 56.5516C14.5756 56.3039 14.9708 55.9087 15.2185 55.4227C15.5001 54.87 15.5001 54.1466 15.5001 52.6998V37.7165C15.5001 36.2697 15.5001 35.5463 15.2185 34.9937C14.9708 34.5076 14.5756 34.1124 14.0896 33.8647C13.537 33.5832 12.8136 33.5832 11.3667 33.5832L9.30008 33.5832C7.85328 33.5832 7.12988 33.5832 6.57727 33.8647C6.09119 34.1124 5.69599 34.5076 5.44831 34.9937C5.16675 35.5463 5.16675 36.2697 5.16675 37.7165Z" stroke="url(#paint0_linear_1_15947)" stroke-width="2" stroke-linecap="round" stroke-linejoin="round"/>
<defs>
<linearGradient id="paint0_linear_1_15947" x1="31.0001" y1="5.1665" x2="31.0001" y2="56.8332" gradientUnits="userSpaceOnUse">
<stop stop-color="white"/>
<stop offset="1" stop-color="#999999"/>
</linearGradient>
</defs>
</svg>
