<svg width="62" height="62" viewBox="0 0 62 62" fill="none" xmlns="http://www.w3.org/2000/svg">
<path d="M54.25 54.25H11.8833C10.4365 54.25 9.71313 54.25 9.16052 53.9684C8.67444 53.7208 8.27924 53.3256 8.03157 52.8395C7.75 52.2869 7.75 51.5635 7.75 50.1167V7.75M51.6667 20.6667L41.5429 31.4719C41.1592 31.8814 40.9674 32.0861 40.736 32.1919C40.5317 32.2853 40.3066 32.3239 40.0829 32.3037C39.8295 32.2809 39.5804 32.1516 39.0824 31.893L30.6676 27.5237C30.1696 27.2651 29.9206 27.1358 29.6671 27.1129C29.4434 27.0928 29.2183 27.1313 29.014 27.2247C28.7826 27.3306 28.5908 27.5353 28.2071 27.9448L18.0833 38.75" stroke="url(#paint0_linear_1_15979)" stroke-width="2" stroke-linecap="round" stroke-linejoin="round"/>
<defs>
<linearGradient id="paint0_linear_1_15979" x1="31" y1="7.75" x2="31" y2="54.25" gradientUnits="userSpaceOnUse">
<stop stop-color="white"/>
<stop offset="1" stop-color="#999999"/>
</linearGradient>
</defs>
</svg>
