<svg width="62" height="62" viewBox="0 0 62 62" fill="none" xmlns="http://www.w3.org/2000/svg">
<path d="M41.3332 46.5L49.0832 38.75M49.0832 38.75L56.8332 46.5M49.0832 38.75V54.25M40.0415 8.50113C43.8285 10.034 46.4998 13.7467 46.4998 18.0833C46.4998 22.4199 43.8285 26.1326 40.0415 27.6655M30.9998 38.75H20.6665C15.8518 38.75 13.4444 38.75 11.5454 39.5366C9.01349 40.5853 7.00185 42.597 5.95308 45.1289C5.1665 47.0279 5.1665 49.4353 5.1665 54.25M34.8748 18.0833C34.8748 23.7903 30.2484 28.4167 24.5415 28.4167C18.8346 28.4167 14.2082 23.7903 14.2082 18.0833C14.2082 12.3764 18.8346 7.75 24.5415 7.75C30.2484 7.75 34.8748 12.3764 34.8748 18.0833Z" stroke="url(#paint0_linear_1_15951)" stroke-width="2" stroke-linecap="round" stroke-linejoin="round"/>
<defs>
<linearGradient id="paint0_linear_1_15951" x1="30.9998" y1="7.75" x2="30.9998" y2="54.25" gradientUnits="userSpaceOnUse">
<stop stop-color="white"/>
<stop offset="1" stop-color="#999999"/>
</linearGradient>
</defs>
</svg>
